<?xml version="1.0" standalone="no"?>
<!DOCTYPE svg PUBLIC "-//W3C//DTD SVG 20010904//EN"
 "http://www.w3.org/TR/2001/REC-SVG-20010904/DTD/svg10.dtd">
<svg version="1.0" xmlns="http://www.w3.org/2000/svg"
 width="400.000000pt" height="400.000000pt" viewBox="0 0 400.000000 400.000000"
 preserveAspectRatio="xMidYMid meet">
<metadata>
Created by potrace 1.11, written by Peter Selinger 2001-2013
</metadata>
<g transform="translate(0.000000,400.000000) scale(0.100000,-0.100000)"
fill="#000000" stroke="none">
<path d="M1713 3978 c-12 -12 -36 -22 -54 -23 -17 -2 -35 -9 -40 -16 -7 -11
-9 -11 -9 2 0 12 -7 15 -25 12 -26 -6 -57 -33 -36 -33 6 0 11 -6 11 -14 0 -19
-82 -34 -88 -16 -3 8 -7 9 -11 2 -6 -10 -73 -6 -171 11 -14 3 -58 8 -97 12
-40 4 -73 11 -73 17 0 5 -5 6 -11 3 -5 -4 -40 -8 -77 -8 -59 -2 -67 -4 -70
-22 -3 -21 10 -28 91 -56 20 -7 37 -18 37 -25 0 -7 13 -17 30 -22 21 -8 28
-16 24 -26 -8 -21 15 -21 44 -1 18 13 21 13 16 2 -3 -10 4 -18 23 -25 19 -7
22 -11 9 -11 -12 -1 -16 -6 -12 -17 8 -21 -24 -74 -45 -74 -23 0 -32 -29 -17
-48 8 -10 9 -13 1 -9 -21 13 -45 -4 -40 -29 2 -13 -1 -25 -7 -28 -6 -2 -3 -10
9 -19 15 -11 23 -12 37 -3 25 15 23 36 -4 36 -26 0 -13 16 17 22 14 2 23 -4
31 -22 l12 -25 11 28 c6 15 15 27 21 27 5 0 10 7 10 15 0 13 3 14 15 3 12 -11
11 -15 -5 -27 -23 -16 -26 -46 -6 -54 14 -5 26 -81 27 -167 0 -21 8 -42 20
-53 10 -10 19 -26 19 -36 0 -33 39 -33 73 0 39 38 59 24 28 -20 -13 -17 -27
-31 -32 -31 -5 0 -9 -4 -9 -10 0 -5 -31 -41 -70 -80 -38 -39 -70 -72 -70 -75
0 -2 8 -2 18 2 14 5 15 3 5 -8 -19 -19 -16 -48 5 -48 15 1 80 -5 159 -14 29
-3 52 -35 44 -62 -3 -12 -30 -44 -60 -71 -29 -27 -57 -58 -62 -69 -15 -32 -84
-116 -107 -128 -11 -7 -51 -33 -89 -58 -59 -40 -225 -129 -240 -129 -3 0 -3
39 -2 88 2 48 0 89 -4 92 -4 3 -18 -13 -30 -35 -12 -22 -34 -53 -49 -70 -16
-16 -28 -36 -28 -42 0 -7 -4 -13 -10 -13 -5 0 -6 -7 -3 -17 4 -10 2 -14 -4
-10 -13 8 -21 -22 -29 -105 -3 -35 -12 -83 -19 -108 -16 -52 -25 -181 -12
-173 13 8 62 121 87 201 12 40 25 71 28 67 3 -3 6 -27 5 -53 0 -31 1 -36 4
-14 7 49 23 38 23 -16 0 -65 -26 -137 -56 -157 -13 -8 -24 -22 -24 -30 0 -8
-5 -15 -11 -15 -5 0 -8 -4 -4 -10 7 -11 -34 -77 -52 -84 -7 -3 -13 2 -14 12 0
9 -5 2 -12 -17 -17 -50 -38 -53 -26 -4 5 21 9 49 9 63 0 20 -2 22 -10 10 -5
-8 -10 -27 -10 -41 0 -15 -6 -39 -14 -53 -11 -23 -15 -24 -26 -11 -7 9 -10 26
-6 42 6 28 6 28 -24 -7 -16 -19 -30 -39 -30 -44 0 -4 10 -26 22 -47 21 -37 21
-39 3 -59 -11 -12 -31 -20 -50 -20 -42 0 -61 -17 -79 -70 -20 -57 -21 -211 -2
-282 20 -76 96 -207 151 -258 22 -21 28 -22 36 -10 5 8 8 34 7 58 -1 33 4 48
24 70 14 15 28 39 32 54 3 15 20 36 36 48 26 19 30 27 30 71 0 34 4 49 13 49
11 0 14 29 14 142 -1 78 -3 136 -5 130 -2 -6 -10 -8 -18 -5 -11 4 -14 -6 -14
-46 0 -61 -20 -69 -21 -8 l-1 42 -10 -34 c-5 -19 -16 -44 -24 -55 -14 -20 -14
-20 -14 7 0 24 -3 27 -20 22 -16 -5 -19 -3 -13 11 4 12 3 15 -5 10 -21 -13
-13 11 15 43 15 17 33 31 40 31 6 0 20 11 31 25 11 14 24 25 30 25 6 0 12 5
14 12 7 21 29 -3 23 -25 -5 -19 -2 -18 18 7 24 27 27 28 83 21 31 -4 64 -10
73 -15 99 -49 215 -121 253 -158 9 -10 24 -23 33 -31 12 -10 15 -22 11 -45
-10 -46 -7 -89 6 -97 6 -4 8 -11 4 -17 -10 -17 5 -42 25 -42 10 0 19 -7 19
-15 0 -8 5 -15 10 -15 6 0 10 -4 10 -10 0 -5 -7 -10 -15 -10 -20 0 -19 -16 0
-24 12 -4 6 -14 -25 -42 -22 -20 -40 -43 -40 -50 0 -19 17 -17 24 3 5 11 10
13 17 6 8 -8 8 -17 0 -31 -16 -29 -14 -64 5 -91 14 -19 14 -27 4 -47 -11 -19
-11 -26 0 -38 10 -13 7 -24 -14 -61 -15 -25 -31 -43 -37 -40 -5 4 -5 -4 1 -20
14 -37 2 -116 -22 -142 -30 -33 -14 -68 47 -102 28 -15 51 -35 53 -44 4 -19
-18 -23 -35 -6 -7 7 -19 9 -28 5 -12 -4 -15 -15 -10 -51 4 -36 2 -45 -10 -45
-8 0 -15 -9 -15 -20 0 -11 -9 -36 -20 -57 -20 -41 -33 -94 -31 -131 0 -13 -3
-20 -9 -17 -6 3 -10 -3 -10 -14 0 -11 -5 -23 -10 -26 -6 -4 -8 -15 -5 -25 3
-10 2 -21 -3 -24 -4 -3 -7 -40 -5 -83 4 -103 3 -175 -3 -185 -3 -4 634 -8
1415 -8 l1421 0 0 1228 c0 1047 -2 1239 -15 1298 -41 193 -58 275 -70 342 -8
40 -18 79 -25 86 -12 15 -129 14 -152 0 -7 -5 -22 -10 -33 -11 -194 -19 -254
-21 -299 -10 -27 7 -53 19 -57 27 -3 8 -13 29 -20 45 -8 17 -18 33 -22 36 -10
7 -23 140 -19 185 2 22 9 34 24 37 19 5 19 7 4 29 -9 12 -16 31 -16 41 0 11
-15 32 -32 48 -93 85 -108 102 -96 116 6 7 13 11 15 9 3 -3 11 1 18 7 11 10 9
16 -8 35 -18 19 -18 22 -4 22 9 0 17 5 17 11 0 17 -80 89 -98 89 -15 0 -15 2
-2 11 12 9 12 10 -3 5 -11 -4 -29 2 -43 13 -23 18 -23 19 -4 24 27 7 25 24 -4
29 -17 3 -23 1 -19 -8 7 -18 -33 -27 -56 -12 -26 16 -29 68 -5 68 9 0 18 9 21
19 3 10 15 21 28 23 20 4 22 2 15 -22 -7 -26 -7 -27 16 -16 13 6 24 15 24 19
0 12 42 46 57 47 14 0 77 33 81 42 2 4 13 2 24 -5 15 -9 22 -9 25 -1 2 7 12
10 22 7 13 -3 21 3 26 19 6 19 8 20 12 6 7 -28 26 -21 21 7 -3 13 -1 22 3 19
5 -3 9 -14 9 -25 0 -22 6 -23 49 -8 29 10 43 29 21 29 -5 0 -10 5 -10 10 0 17
28 11 39 -7 11 -20 15 -4 5 21 -6 14 -82 16 -759 16 -708 0 -753 -1 -751 -17
1 -12 -7 -18 -21 -19 -25 -1 -31 11 -10 19 6 2 9 8 5 12 -4 4 -14 3 -21 -3 -7
-6 -28 -10 -45 -8 -24 4 -33 0 -37 -14 -8 -24 -35 -15 -35 11 0 21 -25 26 -33
7 -4 -10 -6 -10 -6 0 -1 17 -12 14 -38 -10z m437 2 c0 -5 -5 -10 -11 -10 -5 0
-7 5 -4 10 3 6 8 10 11 10 2 0 4 -4 4 -10z m350 -4 c0 -3 -4 -8 -10 -11 -5 -3
-10 -1 -10 4 0 6 5 11 10 11 6 0 10 -2 10 -4z m-67 -33 c-7 -2 -19 -2 -25 0
-7 3 -2 5 12 5 14 0 19 -2 13 -5z m-693 -12 c0 -5 -7 -15 -17 -22 -14 -12 -17
-12 -21 0 -3 10 -6 10 -12 1 -5 -8 -9 -7 -13 5 -4 9 -3 14 1 11 4 -2 14 -1 22
5 19 11 40 12 40 0z m213 -8 c-7 -2 -19 -2 -25 0 -7 3 -2 5 12 5 14 0 19 -2
13 -5z m978 -36 c-1 -4 -1 -16 -1 -27 0 -20 -22 -26 -54 -14 -23 9 -20 27 3
19 14 -4 21 0 26 15 6 19 28 25 26 7z m-1597 -176 c-3 -9 -7 -21 -7 -28 0 -8
-6 -8 -21 3 -11 8 -28 14 -38 14 -10 0 -18 5 -18 10 0 6 7 10 15 10 8 0 15 4
15 8 0 5 14 7 31 4 23 -3 29 -8 23 -21z m44 -83 c8 -8 15 -8 25 0 10 9 18 8
33 -3 10 -8 15 -15 9 -15 -5 0 -3 -5 5 -10 10 -6 11 -10 3 -10 -8 0 -13 -13
-13 -31 0 -22 -5 -32 -20 -36 -11 -3 -20 -10 -20 -15 0 -6 -7 -5 -15 2 -18 15
-20 31 -2 28 15 -4 10 31 -7 52 -29 34 -27 67 2 38z m1819 -34 c-3 -3 -12 -4
-19 -1 -8 3 -5 6 6 6 11 1 17 -2 13 -5z m-1883 -19 c-4 -8 -8 -15 -10 -15 -2
0 -4 7 -4 15 0 8 4 15 10 15 5 0 7 -7 4 -15z m1897 -621 c24 -41 72 -184 65
-192 -4 -3 -18 6 -33 20 -22 22 -24 30 -14 42 10 12 8 15 -11 18 -19 3 -24 11
-32 58 -4 30 -13 58 -18 61 -13 9 0 31 15 26 6 -2 19 -17 28 -33z m-2038 -491
c-3 -10 -14 -30 -24 -44 -39 -56 -95 -388 -68 -404 4 -3 6 -12 2 -21 -19 -50
-53 88 -53 215 0 79 16 161 39 191 17 24 89 79 103 80 4 0 5 -8 1 -17z m-283
-32 c0 -16 -12 -41 -20 -41 -4 0 -5 11 -2 25 4 23 22 36 22 16z m2145 -279 c0
-15 -7 -16 -45 -8 -46 9 -39 34 8 27 20 -4 37 -12 37 -19z m-1285 3 c0 -9 -15
-22 -32 -30 -29 -11 -34 -11 -41 1 -12 22 10 44 44 44 20 0 29 -5 29 -15z
m-795 -15 c14 -23 42 -156 35 -164 -5 -5 -39 -9 -77 -10 l-68 -1 1 35 c1 25
13 52 44 93 43 57 54 65 65 47z m-315 -339 c-6 -12 -15 -21 -21 -21 -6 0 -2
14 8 30 19 33 31 24 13 -9z m1590 -234 c0 -25 -17 -47 -37 -47 -16 0 -17 24
-3 51 15 27 40 24 40 -4z m715 -924 c5 -20 2 -31 -11 -40 -21 -16 -34 -8 -34
21 0 21 17 46 31 46 4 0 10 -12 14 -27z"/>
<path d="M3480 3990 c0 -5 7 -10 15 -10 8 0 15 -5 15 -12 0 -6 2 -9 5 -6 3 3
3 13 -1 22 -7 17 -34 22 -34 6z"/>
<path d="M3745 3990 c3 -5 8 -10 11 -10 2 0 4 5 4 10 0 6 -5 10 -11 10 -5 0
-7 -4 -4 -10z"/>
<path d="M1425 3960 c3 -5 8 -10 11 -10 2 0 4 5 4 10 0 6 -5 10 -11 10 -5 0
-7 -4 -4 -10z"/>
<path d="M877 3943 c-4 -3 -7 -11 -7 -17 0 -6 5 -5 12 2 6 6 9 14 7 17 -3 3
-9 2 -12 -2z"/>
<path d="M905 3930 c3 -5 8 -10 11 -10 2 0 4 5 4 10 0 6 -5 10 -11 10 -5 0 -7
-4 -4 -10z"/>
<path d="M935 3930 c-3 -5 -1 -10 4 -10 6 0 11 5 11 10 0 6 -2 10 -4 10 -3 0
-8 -4 -11 -10z"/>
<path d="M1490 3910 c0 -5 5 -10 10 -10 6 0 10 5 10 10 0 6 -4 10 -10 10 -5 0
-10 -4 -10 -10z"/>
<path d="M1036 3517 c-5 -15 -6 -31 -2 -34 11 -11 18 5 14 34 l-4 28 -8 -28z"/>
<path d="M1075 3510 c-3 -5 -1 -10 4 -10 6 0 11 5 11 10 0 6 -2 10 -4 10 -3 0
-8 -4 -11 -10z"/>
<path d="M1192 3512 c-22 -15 11 -81 41 -82 8 0 9 52 1 74 -7 18 -22 20 -42 8z"/>
<path d="M1064 3469 c-3 -6 -1 -16 5 -22 8 -8 11 -5 11 11 0 24 -5 28 -16 11z"/>
<path d="M920 3423 c-25 -23 -51 -43 -58 -43 -10 0 -12 -8 -8 -27 7 -33 1 -42
-39 -65 -17 -9 -32 -27 -34 -40 -1 -12 -11 -34 -20 -48 -10 -14 -21 -33 -24
-43 -4 -10 -21 -23 -37 -29 -17 -6 -29 -13 -26 -15 3 -3 0 -16 -5 -30 -6 -17
-6 -30 1 -38 13 -16 -7 -75 -25 -75 -17 0 -27 -27 -14 -36 6 -3 -3 -18 -22
-34 -25 -23 -30 -34 -25 -54 3 -14 2 -28 -4 -31 -16 -10 -12 -33 8 -38 13 -4
11 -5 -5 -6 -19 -1 -23 -7 -22 -33 0 -18 3 -27 6 -20 8 20 23 3 23 -25 0 -33
9 -25 12 10 1 14 6 23 11 20 13 -8 37 30 35 57 -2 31 10 70 22 70 19 0 83 78
122 149 37 67 85 129 141 180 9 8 17 20 17 27 0 6 14 23 31 38 24 22 29 33 24
53 -4 16 1 37 15 60 19 33 19 34 1 28 -26 -8 -37 12 -17 34 9 10 16 23 16 29
0 19 -19 14 -32 -8 -17 -27 -28 -25 -22 5 2 14 3 24 2 23 -2 0 -23 -21 -48
-45z m45 -161 c-6 -4 -21 -20 -34 -37 l-23 -30 8 30 c9 41 34 69 48 55 7 -7 8
-13 1 -18z m-79 -68 c-3 -9 -6 -19 -6 -24 0 -4 -9 -10 -20 -13 -24 -6 -25 1
-4 31 17 25 39 30 30 6z m-146 -174 c0 -5 -4 -10 -10 -10 -5 0 -10 5 -10 10 0
6 5 10 10 10 6 0 10 -4 10 -10z m-82 -142 c-9 -7 -19 -26 -22 -42 -5 -19 -10
-26 -17 -19 -13 13 20 73 40 73 12 0 12 -2 -1 -12z m-24 -94 c3 -8 2 -12 -4
-9 -6 3 -10 10 -10 16 0 14 7 11 14 -7z"/>
<path d="M1240 3343 c0 -10 4 -24 9 -32 7 -11 10 -9 16 8 7 22 0 41 -16 41 -5
0 -9 -8 -9 -17z"/>
<path d="M1021 3150 c-11 -34 -17 -68 -14 -77 4 -11 2 -14 -5 -9 -8 5 -10 2
-6 -9 11 -29 34 4 30 42 -4 27 -2 32 8 24 11 -9 15 -4 20 20 17 87 -4 93 -33
9z"/>
<path d="M970 3034 c0 -8 5 -12 10 -9 6 4 8 11 5 16 -9 14 -15 11 -15 -7z"/>
<path d="M800 2970 c-8 -16 -8 -20 4 -20 9 0 20 9 26 20 8 16 8 20 -4 20 -9 0
-20 -9 -26 -20z"/>
<path d="M744 2897 c-12 -13 -20 -38 -20 -64 l-1 -42 19 24 c10 13 18 27 17
32 -1 4 1 21 6 36 10 37 3 42 -21 14z"/>
<path d="M906 2863 c-6 -14 -5 -15 5 -6 7 7 10 15 7 18 -3 3 -9 -2 -12 -12z"/>
<path d="M703 2759 c-13 -16 -28 -69 -19 -69 3 0 13 14 21 31 18 34 16 60 -2
38z"/>
<path d="M818 2724 c-5 -4 -8 -16 -8 -28 0 -14 3 -17 11 -9 6 6 9 19 7 28 -1
9 -6 13 -10 9z"/>
<path d="M555 2680 c3 -5 8 -10 11 -10 2 0 4 5 4 10 0 6 -5 10 -11 10 -5 0 -7
-4 -4 -10z"/>
<path d="M815 2620 c-9 -18 -14 -34 -11 -37 2 -3 12 9 21 27 9 18 14 34 11 37
-2 3 -12 -9 -21 -27z"/>
<path d="M544 2619 c-3 -6 0 -18 9 -26 13 -13 14 -12 10 11 -6 29 -9 31 -19
15z"/>
<path d="M811 1362 c-7 -26 -13 -54 -14 -63 -1 -10 -10 -16 -25 -16 -12 0 -29
-9 -37 -19 -8 -11 -14 -14 -15 -6 0 6 -6 12 -14 12 -19 0 -40 -26 -27 -34 5
-4 7 -23 4 -43 -4 -26 -3 -34 5 -29 7 4 12 18 12 32 0 39 26 40 60 3 37 -41
38 -59 5 -97 -14 -17 -25 -34 -25 -39 0 -6 -9 -18 -20 -28 -20 -18 -20 -18 6
-31 46 -24 128 -15 217 23 33 14 40 15 48 2 7 -10 8 -5 3 16 -10 47 -36 115
-45 115 -9 0 -95 173 -104 213 -11 43 -21 40 -34 -11z"/>
<path d="M1009 732 c-75 -45 -139 -95 -139 -108 0 -7 6 -19 14 -26 55 -55 86
-211 86 -430 l0 -168 25 0 c22 0 24 3 17 33 -4 17 -6 84 -6 147 1 97 5 126 28
190 23 65 28 96 32 233 3 86 2 157 -3 157 -4 0 -28 -13 -54 -28z"/>
<path d="M3 458 c0 -109 4 -198 9 -198 9 0 9 151 -2 295 -6 85 -7 70 -7 -97z"/>
<path d="M765 564 c-90 -64 -125 -93 -125 -107 0 -9 17 -7 55 9 17 7 18 6 7
-8 -7 -9 -11 -28 -8 -42 3 -15 6 -89 7 -164 2 -136 2 -138 -25 -166 -14 -16
-26 -34 -26 -39 0 -6 -7 -19 -17 -29 -16 -17 -10 -18 157 -18 l173 0 -6 183
c-4 135 -11 202 -26 259 -20 77 -65 178 -79 178 -4 0 -43 -25 -87 -56z"/>
</g>
</svg>
